<svg width="41" height="40" viewBox="0 0 41 40" fill="none" xmlns="http://www.w3.org/2000/svg">
<path fill-rule="evenodd" clip-rule="evenodd" d="M21.1172 17.909C21.1181 18.0292 21.0823 18.147 21.0143 18.2473C20.9463 18.3477 20.8493 18.4261 20.7354 18.4725C20.6216 18.5189 20.4961 18.5313 20.3751 18.5081C20.254 18.4849 20.1427 18.4271 20.0555 18.342C19.9682 18.257 19.9089 18.1486 19.885 18.0307C19.8612 17.9127 19.8739 17.7905 19.9216 17.6796C19.9692 17.5687 20.0497 17.4741 20.1527 17.4079C20.2557 17.3416 20.3766 17.3068 20.5 17.3077C20.6637 17.3077 20.8206 17.371 20.9364 17.4838C21.0521 17.5966 21.1172 17.7495 21.1172 17.909ZM41 11.7619V16.3872C40.9997 17.7587 40.5284 19.0906 39.6612 20.1708C39.5899 20.2633 39.514 20.3465 39.438 20.4344L39.4095 20.4668C39.2766 20.6086 39.1389 20.7474 38.9965 20.8831L38.8208 21.0357C38.7496 21.1005 38.6737 21.1606 38.5977 21.2207C38.5217 21.2809 38.3841 21.3826 38.2796 21.452L38.1372 21.5491C37.9979 21.6355 37.8555 21.7187 37.7099 21.7989L37.615 21.8498C37.2843 22.0226 36.9378 22.1651 36.58 22.2753H36.5135C36.3379 22.3262 36.1574 22.3724 35.977 22.4094H35.8821C35.7017 22.4434 35.5165 22.4711 35.3266 22.4927H35.2507C35.0513 22.5112 34.8519 22.5204 34.6525 22.5204H32.7534V21.5954C32.7534 21.0703 32.5394 20.5668 32.1583 20.1956C31.7772 19.8243 31.2604 19.6157 30.7215 19.6157C30.1826 19.6157 29.6657 19.8243 29.2847 20.1956C28.9036 20.5668 28.6895 21.0703 28.6895 21.5954V22.5204H12.2962V21.5954C12.2962 21.0703 12.0821 20.5668 11.701 20.1956C11.32 19.8243 10.8031 19.6157 10.2642 19.6157C9.7253 19.6157 9.20846 19.8243 8.8274 20.1956C8.44633 20.5668 8.23225 21.0703 8.23225 21.5954V22.5204H6.33322C6.13066 22.5204 5.93126 22.5112 5.73503 22.4927H5.65432C5.46917 22.4696 5.28401 22.4418 5.1036 22.4094H5.00865C4.82825 22.3724 4.64784 22.3262 4.47218 22.2753H4.40096C4.04835 22.1635 3.70674 22.021 3.38024 21.8498L3.29003 21.7989C3.1433 21.7228 3.00069 21.6395 2.86275 21.5491L2.72032 21.4566C2.61113 21.3826 2.50668 21.304 2.40224 21.2207C2.29779 21.1375 2.25032 21.1005 2.1791 21.0357L1.98445 20.8877C1.84202 20.7536 1.70435 20.6194 1.57141 20.4714C1.56679 20.4682 1.56204 20.4651 1.55717 20.4622L1.33878 20.2031C0.467098 19.1146 -0.00434827 17.7725 -3.16545e-05 16.3919V11.7665C0.00122504 11.3539 0.170343 10.9586 0.470252 10.6673C0.770161 10.376 1.17639 10.2124 1.5999 10.2124H39.4C39.8227 10.2124 40.2282 10.3753 40.528 10.6657C40.8278 10.956 40.9975 11.3501 41 11.7619ZM22.5319 17.909C22.5319 17.5174 22.4128 17.1347 22.1895 16.8091C21.9662 16.4836 21.6489 16.2299 21.2776 16.08C20.9063 15.9302 20.4977 15.891 20.1036 15.9674C19.7094 16.0438 19.3473 16.2323 19.0632 16.5092C18.779 16.786 18.5855 17.1388 18.5071 17.5228C18.4286 17.9068 18.4689 18.3048 18.6227 18.6666C18.7765 19.0283 19.0369 19.3375 19.3711 19.555C19.7052 19.7725 20.0981 19.8886 20.5 19.8886C20.7668 19.8886 21.031 19.8374 21.2776 19.7379C21.5241 19.6384 21.7481 19.4926 21.9368 19.3088C22.1255 19.125 22.2751 18.9067 22.3773 18.6666C22.4794 18.4264 22.5319 18.1689 22.5319 17.909ZM31.3529 24.8794V21.6416C31.3604 21.5579 31.35 21.4736 31.3223 21.394C31.2946 21.3145 31.2502 21.2414 31.1919 21.1794C31.1336 21.1175 31.0628 21.068 30.9838 21.0341C30.9049 21.0003 30.8196 20.9828 30.7334 20.9828C30.6471 20.9828 30.5618 21.0003 30.4828 21.0341C30.4039 21.068 30.3331 21.1175 30.2748 21.1794C30.2165 21.2414 30.1721 21.3145 30.1444 21.394C30.1167 21.4736 30.1063 21.5579 30.1138 21.6416V24.8794C30.1274 25.0303 30.1985 25.1709 30.3132 25.2732C30.4279 25.3756 30.5778 25.4324 30.7334 25.4324C30.8889 25.4324 31.0388 25.3756 31.1535 25.2732C31.2682 25.1709 31.3393 25.0303 31.3529 24.8794ZM10.8814 24.8794V21.6416C10.8814 21.4822 10.8164 21.3292 10.7006 21.2165C10.5849 21.1037 10.4279 21.0403 10.2642 21.0403C10.1005 21.0403 9.94354 21.1037 9.8278 21.2165C9.71205 21.3292 9.64703 21.4822 9.64703 21.6416V24.8794C9.64703 25.0388 9.71205 25.1918 9.8278 25.3046C9.94354 25.4173 10.1005 25.4807 10.2642 25.4807C10.4279 25.4807 10.5849 25.4173 10.7006 25.3046C10.8164 25.1918 10.8814 25.0388 10.8814 24.8794ZM39.5235 22.2707C39.3526 22.4048 39.1721 22.5343 38.9917 22.6546L38.93 22.6916C38.7496 22.8072 38.5692 22.9182 38.3793 23.02L38.2226 23.094C38.066 23.1772 37.8998 23.2559 37.7479 23.3253L37.5532 23.4039C37.3966 23.464 37.2399 23.5241 37.0785 23.575L36.8506 23.6398C36.6939 23.686 36.5373 23.7277 36.3758 23.76L36.1337 23.8109C35.9675 23.8433 35.7966 23.8664 35.6305 23.8896L35.4026 23.9173C35.1605 23.9173 34.9278 23.9497 34.6667 23.9497H32.7677V24.8748C32.7677 25.3998 32.5536 25.9033 32.1725 26.2746C31.7915 26.6458 31.2746 26.8544 30.7357 26.8544C30.1968 26.8544 29.68 26.6458 29.2989 26.2746C28.9178 25.9033 28.7038 25.3998 28.7038 24.8748V23.9497H12.2962V24.8748C12.2962 25.3998 12.0821 25.9033 11.701 26.2746C11.32 26.6458 10.8031 26.8544 10.2642 26.8544C9.7253 26.8544 9.20846 26.6458 8.8274 26.2746C8.44633 25.9033 8.23225 25.3998 8.23225 24.8748V23.9497H6.33322C6.0816 23.9497 5.83473 23.9497 5.5926 23.9173C5.51664 23.9173 5.44543 23.9173 5.36947 23.8896C5.19855 23.8896 5.02764 23.8433 4.86148 23.8109L4.6241 23.76C4.46268 23.7277 4.30126 23.686 4.14934 23.6398L3.92621 23.575C3.76479 23.5241 3.60337 23.464 3.45145 23.4039L3.26155 23.3253C3.09063 23.2559 2.92447 23.1772 2.78679 23.094L2.63962 23.02C2.44497 22.9136 2.25032 22.8026 2.06516 22.6823L2.02718 22.6546C1.84202 22.5343 1.66636 22.4048 1.4907 22.2707V37.687C1.4907 38.3003 1.7408 38.8886 2.18597 39.3223C2.63114 39.756 3.23492 39.9996 3.86449 39.9996H37.1497C37.7793 39.9996 38.383 39.756 38.8282 39.3223C39.2734 38.8886 39.5235 38.3003 39.5235 37.687V22.2707ZM11.3324 8.6074C11.4372 7.73727 11.7212 6.89671 12.1674 6.13609C12.6137 5.37548 13.2129 4.71048 13.9293 4.18095C15.805 2.75788 18.1229 2.00079 20.5 2.03479C22.8771 2.00079 25.1949 2.75788 27.0706 4.18095C27.787 4.71048 28.3863 5.37548 28.8325 6.13609C29.2788 6.89671 29.5628 7.73727 29.6675 8.6074L29.7008 8.98668H31.7897L31.7565 8.52415C31.644 7.3629 31.2866 6.23679 30.7065 5.21642C30.1265 4.19605 29.3364 3.30341 28.3857 2.59445C26.1382 0.877954 23.3555 -0.0376944 20.5 -0.00036714C17.6426 -0.0344927 14.8595 0.886194 12.6143 2.60833C11.664 3.31767 10.8741 4.21041 10.2942 5.23071C9.71416 6.251 9.35648 7.37691 9.24348 8.53802L9.2055 9.00056H11.2992L11.3324 8.6074Z" fill="white"/>
</svg>
