<svg width="43" height="40" viewBox="0 0 43 40" fill="none" xmlns="http://www.w3.org/2000/svg">
<path fill-rule="evenodd" clip-rule="evenodd" d="M0.00149536 13.1481H13.8032V40H0.00149536V13.1481ZM26.6517 0H43.0002V40H30.0075V18.3339H26.6517V0ZM29.3733 3.10717H32.1546V5.99576H29.3733V3.10717ZM33.4401 3.10717H36.2169V5.99576H33.4401V3.10717ZM37.5031 3.10717H40.2806V5.99576H37.5005L37.5031 3.10717ZM29.3733 7.77556H32.1546V10.6635H29.3733V7.77556ZM33.4401 7.77556H36.2169V10.6635H33.4401V7.77556ZM37.5031 7.77556H40.2806V10.6635H37.5005L37.5031 7.77556ZM29.3758 12.4427H32.1546V15.3319H29.3733V12.4427H29.3758ZM33.4426 12.4427H36.2195V15.3319H33.4426V12.4427ZM37.5056 12.4427H40.2831V15.3319H37.5005L37.5056 12.4427ZM8.30983 2.62924H25.4577V18.3365H15.0842V11.8972H8.30475L8.30983 2.62924ZM14.9978 19.5326H28.8014V40H14.9978V19.5326ZM24.5738 27.0921H27.3513V29.9769H24.5751V27.0889L24.5738 27.0921ZM20.507 27.0921H23.2839V29.9769H20.507V27.0921ZM16.4434 27.0921H19.2215V29.9769H16.4479L16.4434 27.0921ZM24.5707 22.4237H27.3481V25.3123H24.5751L24.5707 22.4237ZM20.5039 22.4237H23.2807V25.3123H20.5039V22.4237ZM16.4402 22.4237H19.2184V25.3123H16.4479L16.4402 22.4237ZM1.44394 15.5288H4.22207V18.4174H1.44838L1.44394 15.5288ZM5.51073 15.5288H8.28759V18.4174H5.51073V15.5288ZM9.57371 15.5288H12.3512V18.4174H9.57562L9.57371 15.5288ZM1.44648 20.1972H4.22461V23.082H1.44838L1.44648 20.1972ZM5.51327 20.1972H8.29013V23.082H5.51327V20.1972ZM9.57625 20.1972H12.3538V23.082H9.57562L9.57625 20.1972ZM1.44902 24.8643H4.22715V27.7529H1.44838V24.8612L1.44902 24.8643ZM5.51581 24.8643H8.29267V27.7529H5.51581V24.8612V24.8643ZM9.5788 24.8643H12.3563V27.7529H9.57562V24.8612L9.5788 24.8643Z" fill="white"/>
</svg>