<svg width="53" height="53" viewBox="0 0 53 53" fill="none" xmlns="http://www.w3.org/2000/svg">
<g clip-path="url(#clip0_0_200)">
<path d="M20.4613 19.0163H32.5679C32.7868 19.0148 32.9964 18.9271 33.1512 18.7723C33.306 18.6175 33.3937 18.4079 33.3952 18.189V5.31332C33.3959 5.20472 33.3745 5.0971 33.3325 4.99697C33.2904 4.89683 33.2285 4.80626 33.1505 4.73071L28.6644 0.23879C28.5882 0.16209 28.4973 0.101437 28.3973 0.060411C28.2972 0.019385 28.1899 -0.00118316 28.0818 -7.99286e-05H20.4379C20.3291 -0.000854759 20.2212 0.0200152 20.1204 0.0613168C20.0197 0.102618 19.9282 0.163528 19.8512 0.240505C19.7743 0.317482 19.7133 0.408992 19.672 0.509715C19.6307 0.610438 19.6099 0.718366 19.6106 0.827226V18.1715C19.6122 18.3905 19.6998 18.6 19.8546 18.7548C20.0095 18.9096 20.219 18.9973 20.4379 18.9988L20.4613 19.0163ZM28.9091 2.82558L30.5812 4.48601H28.9091V2.82558ZM21.2594 1.65453H27.2545V5.31332C27.2545 5.53274 27.3416 5.74316 27.4968 5.89831C27.6519 6.05346 27.8624 6.14063 28.0818 6.14063H31.7464V17.3442H21.2594V1.65453ZM22.5353 5.31332C22.5369 5.09438 22.6245 4.88483 22.7793 4.73001C22.9342 4.57519 23.1437 4.48754 23.3626 4.48601H25.6173C25.726 4.48601 25.8336 4.50741 25.9339 4.54899C26.0343 4.59057 26.1255 4.6515 26.2023 4.72833C26.2792 4.80515 26.3401 4.89635 26.3817 4.99672C26.4233 5.0971 26.4447 5.20468 26.4447 5.31332C26.4447 5.42196 26.4233 5.52954 26.3817 5.62992C26.3401 5.73029 26.2792 5.82149 26.2023 5.89831C26.1255 5.97514 26.0343 6.03608 25.9339 6.07765C25.8336 6.11923 25.726 6.14063 25.6173 6.14063H23.3685C23.1491 6.14063 22.9386 6.05346 22.7835 5.89831C22.6283 5.74316 22.5412 5.53274 22.5412 5.31332H22.5353ZM30.4588 9.49646C30.4588 9.71587 30.3717 9.9263 30.2165 10.0815C30.0614 10.2366 29.8509 10.3238 29.6315 10.3238H23.3685C23.1491 10.3238 22.9386 10.2366 22.7835 10.0815C22.6283 9.9263 22.5412 9.71587 22.5412 9.49646C22.5412 9.27704 22.6283 9.06661 22.7835 8.91146C22.9386 8.75631 23.1491 8.66915 23.3685 8.66915H29.6374C29.8563 8.67068 30.0658 8.75833 30.2207 8.91315C30.3755 9.06797 30.4631 9.27751 30.4647 9.49646H30.4588ZM30.4588 13.8544C30.4573 14.0733 30.3697 14.2829 30.2148 14.4377C30.06 14.5925 29.8505 14.6802 29.6315 14.6817H23.3685C23.1491 14.6817 22.9386 14.5945 22.7835 14.4394C22.6283 14.2842 22.5412 14.0738 22.5412 13.8544C22.5412 13.635 22.6283 13.4245 22.7835 13.2694C22.9386 13.1142 23.1491 13.0271 23.3685 13.0271H29.6374C29.8568 13.0271 30.0672 13.1142 30.2223 13.2694C30.3775 13.4245 30.4647 13.635 30.4647 13.8544H30.4588ZM52.7553 14.437L48.2692 9.95089C48.115 9.79545 47.9055 9.70746 47.6866 9.7062H40.0428C39.8238 9.70772 39.6143 9.79537 39.4594 9.9502C39.3046 10.105 39.217 10.3146 39.2155 10.5335V27.8661C39.217 28.0851 39.3046 28.2946 39.4594 28.4494C39.6143 28.6043 39.8238 28.6919 40.0428 28.6934H52.1785C52.3975 28.6919 52.607 28.6043 52.7618 28.4494C52.9166 28.2946 53.0043 28.0851 53.0058 27.8661V15.0079C53.006 14.8986 52.9844 14.7902 52.9424 14.6892C52.9004 14.5882 52.8388 14.4965 52.7611 14.4195L52.7553 14.437ZM48.5139 12.5144L50.1802 14.1806H48.5139V12.5144ZM40.8701 27.0388V11.3492H46.8593V15.0079C46.8608 15.2269 46.9485 15.4364 47.1033 15.5913C47.2581 15.7461 47.4677 15.8337 47.6866 15.8353H51.3454V27.0388H40.8701ZM42.1518 15.0079C42.151 14.8991 42.1719 14.7912 42.2132 14.6904C42.2545 14.5897 42.3154 14.4982 42.3924 14.4212C42.4694 14.3442 42.5609 14.2833 42.6616 14.242C42.7623 14.2007 42.8703 14.1799 42.9791 14.1806H45.228C45.4474 14.1806 45.6578 14.2678 45.813 14.423C45.9681 14.5781 46.0553 14.7885 46.0553 15.0079C46.0553 15.2274 45.9681 15.4378 45.813 15.5929C45.6578 15.7481 45.4474 15.8353 45.228 15.8353H42.9791C42.7597 15.8353 42.5493 15.7481 42.3941 15.5929C42.239 15.4378 42.1518 15.2274 42.1518 15.0079ZM50.0695 19.1911C50.0687 19.301 50.0462 19.4097 50.0033 19.5108C49.9603 19.612 49.8978 19.7037 49.8193 19.7806C49.7408 19.8575 49.6478 19.9181 49.5457 19.9589C49.4437 19.9997 49.3346 20.0199 49.2247 20.0184H42.9791C42.7597 20.0184 42.5493 19.9312 42.3941 19.7761C42.239 19.6209 42.1518 19.4105 42.1518 19.1911C42.1518 18.9717 42.239 18.7612 42.3941 18.6061C42.5493 18.4509 42.7597 18.3638 42.9791 18.3638H49.2247C49.3348 18.3615 49.4443 18.3811 49.5467 18.4217C49.6491 18.4622 49.7423 18.5228 49.821 18.5998C49.8997 18.6769 49.9622 18.7689 50.0049 18.8704C50.0475 18.9719 50.0695 19.081 50.0695 19.1911ZM50.0695 23.549C50.0687 23.6589 50.0462 23.7676 50.0033 23.8687C49.9603 23.9699 49.8978 24.0616 49.8193 24.1385C49.7408 24.2154 49.6478 24.276 49.5457 24.3168C49.4437 24.3576 49.3346 24.3778 49.2247 24.3763H42.9791C42.7597 24.3763 42.5493 24.2891 42.3941 24.134C42.239 23.9788 42.1518 23.7684 42.1518 23.549C42.1518 23.3296 42.239 23.1192 42.3941 22.964C42.5493 22.8089 42.7597 22.7217 42.9791 22.7217H49.2247C49.3348 22.7194 49.4443 22.739 49.5467 22.7796C49.6491 22.8201 49.7423 22.8807 49.821 22.9577C49.8997 23.0348 49.9622 23.1268 50.0049 23.2283C50.0475 23.3298 50.0695 23.4389 50.0695 23.549ZM9.06541 9.93341C8.90891 9.7822 8.70041 9.69671 8.4828 9.69454H0.827306C0.607891 9.69454 0.397462 9.78171 0.242312 9.93686C0.0871623 10.092 0 10.3024 0 10.5219V27.8661C0.0015258 28.0851 0.089178 28.2946 0.243998 28.4494C0.398819 28.6043 0.608362 28.6919 0.827306 28.6934H12.9631C13.1825 28.6934 13.3929 28.6063 13.5481 28.4511C13.7032 28.296 13.7904 28.0856 13.7904 27.8661V15.0079C13.7891 14.789 13.7011 14.5795 13.5457 14.4253L9.06541 9.93341ZM9.30428 12.5144L10.9647 14.1806H9.30428V12.5144ZM1.66044 27.0388V11.3492H7.64966V15.0079C7.65119 15.2269 7.73884 15.4364 7.89366 15.5913C8.04848 15.7461 8.25803 15.8337 8.47697 15.8353H12.1358V27.0388H1.66044ZM2.93635 15.0079C2.93633 14.8978 2.95829 14.7888 3.00096 14.6873C3.04362 14.5857 3.10613 14.4937 3.18481 14.4167C3.26349 14.3396 3.35677 14.2791 3.45917 14.2385C3.56157 14.198 3.67103 14.1783 3.78114 14.1806H6.03584C6.25525 14.1806 6.46568 14.2678 6.62083 14.423C6.77598 14.5781 6.86314 14.7885 6.86314 15.0079C6.86314 15.2274 6.77598 15.4378 6.62083 15.5929C6.46568 15.7481 6.25525 15.8353 6.03584 15.8353H3.78114C3.67124 15.8368 3.56212 15.8166 3.46008 15.7758C3.35803 15.7349 3.26507 15.6743 3.18654 15.5974C3.10802 15.5205 3.04548 15.4289 3.00255 15.3277C2.95961 15.2265 2.93711 15.1178 2.93635 15.0079ZM10.8598 19.1911C10.8583 19.41 10.7707 19.6196 10.6158 19.7744C10.461 19.9292 10.2515 20.0169 10.0325 20.0184H3.78114C3.55863 20.0184 3.34524 19.93 3.1879 19.7727C3.03057 19.6153 2.94218 19.4019 2.94218 19.1794C2.94218 18.9569 3.03057 18.7435 3.1879 18.5862C3.34524 18.4289 3.55863 18.3405 3.78114 18.3405H10.0325C10.1432 18.3404 10.2527 18.3626 10.3546 18.4056C10.4565 18.4486 10.5488 18.5117 10.6259 18.591C10.7031 18.6703 10.7635 18.7642 10.8037 18.8673C10.8439 18.9704 10.863 19.0805 10.8598 19.1911ZM10.8598 23.549C10.8583 23.7679 10.7707 23.9775 10.6158 24.1323C10.461 24.2871 10.2515 24.3748 10.0325 24.3763H3.78114C3.56172 24.3763 3.35129 24.2891 3.19614 24.134C3.04099 23.9788 2.95383 23.7684 2.95383 23.549C2.95383 23.3296 3.04099 23.1192 3.19614 22.964C3.35129 22.8089 3.56172 22.7217 3.78114 22.7217H10.0325C10.252 22.7217 10.4624 22.8089 10.6175 22.964C10.7727 23.1192 10.8598 23.3296 10.8598 23.549ZM26.5029 19.43C26.7223 19.43 26.9328 19.5171 27.0879 19.6723C27.2431 19.8274 27.3302 20.0378 27.3302 20.2573V22.1799C27.3302 22.3993 27.2431 22.6097 27.0879 22.7649C26.9328 22.92 26.7223 23.0072 26.5029 23.0072C26.2835 23.0072 26.0731 22.92 25.9179 22.7649C25.7628 22.6097 25.6756 22.3993 25.6756 22.1799V20.2573C25.6756 20.0378 25.7628 19.8274 25.9179 19.6723C26.0731 19.5171 26.2835 19.43 26.5029 19.43ZM11.7978 38.7784C11.8746 38.8548 11.9356 38.9455 11.9772 39.0455C12.0188 39.1455 12.0402 39.2527 12.0402 39.361C12.0402 39.4693 12.0188 39.5765 11.9772 39.6765C11.9356 39.7765 11.8746 39.8673 11.7978 39.9436C11.7219 40.0211 11.6313 40.0827 11.5312 40.1248C11.4312 40.1668 11.3237 40.1885 11.2152 40.1885C11.1067 40.1885 10.9993 40.1668 10.8993 40.1248C10.7992 40.0827 10.7086 40.0211 10.6326 39.9436L6.31549 35.6265C6.238 35.5505 6.17644 35.4599 6.13443 35.3599C6.09241 35.2598 6.07078 35.1524 6.07079 35.0439V32.0027C6.07079 31.7833 6.15795 31.5728 6.3131 31.4177C6.46825 31.2625 6.67868 31.1754 6.8981 31.1754C7.11751 31.1754 7.32794 31.2625 7.48309 31.4177C7.63824 31.5728 7.7254 31.7833 7.7254 32.0027V34.706L11.7978 38.7784ZM46.935 32.0027V35.0497C46.9338 35.2686 46.8458 35.4782 46.6903 35.6323L42.379 39.9495C42.2245 40.1044 42.0152 40.1923 41.7964 40.1942C41.6879 40.1945 41.5803 40.173 41.4803 40.131C41.3802 40.0889 41.2896 40.0272 41.2138 39.9495C41.137 39.8731 41.0761 39.7823 41.0345 39.6824C40.9929 39.5824 40.9715 39.4751 40.9715 39.3669C40.9715 39.2586 40.9929 39.1513 41.0345 39.0514C41.0761 38.9514 41.137 38.8606 41.2138 38.7842L45.2921 34.706V32.0027C45.2921 31.7833 45.3792 31.5728 45.5344 31.4177C45.6895 31.2625 45.9 31.1754 46.1194 31.1754C46.3388 31.1754 46.5492 31.2625 46.7044 31.4177C46.8595 31.5728 46.9467 31.7833 46.9467 32.0027H46.935Z" fill="white"/>
<path d="M26.9651 39.2748C30.3377 39.2748 33.1025 36.5403 33.1025 33.1374C33.1025 29.7345 30.368 27 26.9651 27C23.5622 27 20.8278 29.7345 20.8278 33.1374C20.8278 36.5403 23.5926 39.2748 26.9651 39.2748Z" fill="white"/>
<path d="M31.4922 39.5786C31.4315 39.5786 31.4011 39.5786 31.3707 39.5786C31.3403 39.5786 31.3403 39.5786 31.3099 39.5786C31.2795 39.5786 31.2492 39.5786 31.2188 39.5786C31.1884 39.5786 31.1884 39.5786 31.158 39.5786C31.1276 39.5786 31.0972 39.609 31.0669 39.609H31.0365C30.9757 39.6394 30.9453 39.6698 30.8846 39.7001C29.73 40.5205 28.3931 40.9459 26.9651 40.9459C25.5371 40.9459 24.2003 40.5205 23.0457 39.7001C23.0153 39.6698 22.9546 39.6394 22.8938 39.609H22.8634C22.833 39.609 22.8027 39.5786 22.7419 39.5786C22.7115 39.5786 22.7115 39.5786 22.6811 39.5786C22.6507 39.5786 22.6204 39.5786 22.59 39.5786C22.5596 39.5786 22.5596 39.5786 22.5292 39.5786C22.4988 39.5786 22.4684 39.5786 22.4381 39.5786C22.4381 39.5786 22.4381 39.5786 22.4077 39.5786C18.306 40.5205 15.45 44.1057 15.45 48.3289V49.2404C15.45 49.6658 15.7842 50 16.2095 50H37.6904C38.1157 50 38.45 49.6658 38.45 49.2404V48.3289C38.45 44.1361 35.5939 40.5205 31.4922 39.5786Z" fill="white"/>
</g>
<defs>
<clipPath id="clip0_0_200">
<rect width="53" height="53" fill="white"/>
</clipPath>
</defs>
</svg>
