<svg width="30" height="49" viewBox="0 0 30 49" fill="none" xmlns="http://www.w3.org/2000/svg">
<path d="M7.99469 16.3216C9.17058 20.1691 11.8476 23.4091 15 23.4091C18.1524 23.4091 20.8294 20.1691 22.0053 16.3216C22.562 16.069 23.0285 15.6494 23.3417 15.1197C23.655 14.59 23.7998 13.9757 23.7566 13.36C23.7767 12.5025 23.4724 11.6695 22.906 11.0313C23.4086 8.14558 22.8478 5.17358 21.3298 2.67815C16.8514 -2.99184 10.9719 3.08315 10.9719 3.08315C8.04473 1.79222 6.79378 3.99441 6.79378 7.05722C6.77282 8.31525 6.8903 9.57173 7.14405 10.8035C6.80543 11.1289 6.53721 11.5219 6.35634 11.9576C6.17548 12.3933 6.08589 12.8622 6.09325 13.3347C6.05632 13.9722 6.22061 14.6051 6.56238 15.142C6.90416 15.6788 7.40573 16.0919 7.99469 16.3216Z" fill="white"/>
<path d="M21.5299 25.6872L16.9515 35.4325L15.8006 28.8513C16.8514 28.5475 17.2267 27.5603 17.652 26.5225C18.0773 25.4847 16.351 25.0797 15 25.0797C13.649 25.0797 11.8476 25.2822 12.348 26.5225C12.8484 27.7628 13.1486 28.5475 14.1994 28.8513L13.0485 35.4325L8.47005 25.6619C8.47005 25.6619 0.964366 27.4844 0.814253 31.1041C0.627293 37.0768 0.836253 43.0556 1.43973 49H28.5603C29.1637 43.0556 29.3727 37.0768 29.1857 31.1041C28.9105 27.4844 21.5299 25.6872 21.5299 25.6872Z" fill="white"/>
</svg>
